<?xml version="1.0" standalone="no"?>
<!DOCTYPE svg PUBLIC "-//W3C//DTD SVG 20010904//EN"
 "http://www.w3.org/TR/2001/REC-SVG-20010904/DTD/svg10.dtd">
<svg version="1.0" xmlns="http://www.w3.org/2000/svg"
     width="2000px" height="1300px"
     viewBox="0 0 1018 660"
     preserveAspectRatio="xMidYMid meet">

  <!--
    Theme applied:
      - pale card/background green:  #E6F6F1
      - primary (medium green):     #3AA18A
      - primary dark (accent):      #2E7D73
      - primary light (mint):       #79D3B6

    The large shape uses a soft pale->mint gradient and the
    smaller/foreground details use the stronger brand greens.
  -->

  <defs>
    <!-- soft pale -> mint gradient for the large background shape -->
    <linearGradient id="brandGradient" x1="0%" y1="0%" x2="100%" y2="0%">
      <stop offset="0%"  stop-color="#E6F6F1" />
      <stop offset="100%" stop-color="#79D3B6" />
    </linearGradient>

    <!-- stronger vertical accent gradient (optional) -->
    <linearGradient id="brandAccent" x1="0%" y1="0%" x2="0%" y2="100%">
      <stop offset="0%"  stop-color="#3AA18A" />
      <stop offset="100%" stop-color="#2E7D73" />
    </linearGradient>
  </defs>

  <!-- main artwork group -->
  <g transform="translate(0,660) scale(0.1,-0.1)" stroke="none">

    <!-- large background/complex shape — use the pale->mint gradient -->
    <path d="M4535 5645 c-219 -27 -365 -59 -570 -125 -103 -32 -108 -34 -238 -94
    -43 -20 -80 -36 -81 -36 -2 0 -52 -27 -111 -60 -194 -108 -354 -224 -522 -378
    -239 -220 -423 -456 -560 -719 -25 -49 -48 -92 -52 -98 -4 -5 -26 -57 -50
    -115 -24 -58 -47 -114 -51 -125 -10 -23 -39 -121 -80 -275 -45 -167 -80 -455
    -80 -651 0 -99 21 -315 44 -459 34 -214 142 -527 258 -755 188 -367 517 -746
    -828 -955 36 -24 67 -47 70 -50 3 -4 21 -15 40 -25 19 -10 53 -30 75 -45 22
    -15 79 -48 126 -73 47 -25 95 -50 105 -56 41 -24 254 -104 349 -132 55 -16
    114 -33 130 -38 139 -45 438 -81 674 -81 188 0 452 29 591 64 178 46 261 73
    395 130 59 25 110 46 114 46 17 0 249 134 358 207 254 168 499 400 667 628 17
    22 32 42 35 45 27 24 139 213 215 362 157 308 246 615 281 978 18 182 18 248
    0 436 -20 206 -74 468 -135 649 -54 158 -58 170 -125 305 -143 294 -309 524
    -537 746 -92 90 -272 244 -286 244 -4 0 -23 14 -42 31 -19 17 -47 37 -62 45
    -15 8 -46 27 -70 42 -24 16 -79 48 -123 72 -44 23 -84 46 -90 49 -5 4 -34 18
    -64 30 -29 13 -81 35 -115 51 -186 85 -443 150 -731 185 -144 18 -440 17 -580
    0z m1035 -714 c0 -5 -5 -22 -11 -38 -6 -15 -10 -68 -10 -118 0 -99 19 -170
    101 -375 143 -356 153 -559 41 -792 -36 -73 -163 -228 -188 -228 -19 0 -113
    78 -113 94 0 7 14 25 31 42 102 97 172 243 183 382 5 71 -21 213 -53 289 -37
    89 -121 324 -136 383 -8 32 -15 74 -15 94 0 21 -6 39 -13 42 -16 6 -164 -56
    -231 -98 -164 -100 -282 -248 -332 -416 -21 -71 -34 -56 -41 46 -9 122 13 196
    94 318 116 179 292 287 588 364 81 21 105 24 105 11z m-803 -325 c-77 -100
    -117 -232 -117 -382 1 -87 5 -109 33 -184 18 -47 50 -112 72 -145 57 -86 217
    -248 385 -390 273 -230 381 -370 446 -581 28 -90 25 -293 -5 -399 -37 -132
    -149 -335 -184 -335 -6 0 -34 20 -62 44 l-50 44 47 99 c52 107 55 116 68 196
    18 113 -24 331 -78 407 -10 14 -21 32 -24 40 -10 26 -133 164 -185 208 -59 49
    -78 47 -93 -10 -15 -52 -9 -64 59 -142 32 -37 75 -97 94 -134 34 -65 77 -199
    77 -242 0 -35 -17 -22 -35 28 -10 26 -25 58 -34 72 -31 51 -118 145 -189 206
    -66 56 -78 62 -105 57 -18 -3 -39 -12 -48 -19 -21 -19 -48 -18 -71 3 -13 12
    -18 31 -18 75 0 71 -25 125 -69 151 -17 10 -59 46 -94 80 -65 65 -87 111 -87
    186 0 36 19 51 33 26 5 -10 52 -59 104 -109 152 -146 205 -173 239 -121 24 37
    12 108 -23 130 -14 10 -64 54 -111 99 -119 114 -187 218 -237 362 -26 74 -27
    86 -22 199 7 163 36 248 124 364 42 54 54 67 117 115 59 45 76 46 43 2z m452
    -278 c-10 -37 -14 -122 -14 -288 0 -209 3 -246 23 -334 12 -54 20 -101 18
    -104 -6 -5 -109 79 -143 117 -47 53 -40 241 16 449 10 37 71 172 95 210 16 26
    18 2 5 -50z m-883 -205 c-9 -54 -16 -156 -16 -228 -1 -71 -2 -175 -3 -230 -2
    -112 9 -156 73 -290 32 -68 55 -98 147 -189 59 -60 131 -123 158 -140 28 -17
    58 -35 67 -41 9 -5 59 -45 113 -89 149 -122 239 -245 265 -366 13 -61 11 -132
    -5 -136 -5 -2 -30 26 -55 63 -75 112 -152 179 -374 328 -164 110 -230 161
    -311 241 -164 162 -222 266 -257 455 -19 103 -19 124 -9 214 13 109 53 239
    102 337 38 75 109 182 116 174 3 -2 -2 -49 -11 -103z m2040 -575 c-8 -76 -33
    -393 -42 -540 -8 -126 -13 -130 -83 -65 -72 65 -125 107 -137 107 -6 0 -38
    -34 -70 -76 -33 -42 -76 -97 -97 -122 -20 -26 -57 -72 -80 -103 -72 -93 -119
    -149 -127 -149 -4 0 -5 42 -3 93 3 50 0 124 -7 162 -25 151 -31 128 69 249 50
    61 91 116 91 123 0 7 -24 31 -52 54 -87 68 -118 98 -118 112 0 7 21 19 48 26
    52 15 278 87 472 149 69 23 129 41 134 41 5 1 6 -26 2 -61z m-2234 -591 c51
    -45 107 -94 124 -107 17 -14 165 -137 328 -275 276 -232 351 -294 580 -480 47
    -38 86 -75 86 -82 0 -7 -35 -54 -77 -105 -43 -51 -98 -118 -122 -148 -25 -30
    -47 -57 -50 -60 -4 -3 -29 -33 -56 -68 -96 -122 -310 -377 -335 -400 -42 -38
    -182 -128 -240 -154 -162 -74 -440 -75 -607 -2 -60 26 -178 101 -240 151 -63
    51 -147 167 -192 263 -59 127 -74 204 -69 368 7 251 48 327 406 757 45 55 106
    129 135 164 29 35 66 80 83 100 16 20 52 64 79 99 26 34 54 62 61 62 6 0 54
    -37 106 -83z"
    fill="url(#brandGradient)"/>

    <!-- foreground/detail shape — use stronger brand green -->
    <path d="M3959 2633 c-52 -64 -98 -121 -104 -127 -5 -6 -29 -36 -51 -66 -23
    -30 -78 -98 -123 -150 -44 -52 -94 -120 -110 -150 -71 -132 -90 -306 -50 -450
    19 -69 67 -175 76 -166 2 2 -3 41 -11 87 -14 81 -11 162 10 264 11 52 69 168
    108 215 39 47 223 273 304 373 26 33 66 81 89 108 73 84 73 87 18 136 -26 24
    -50 43 -54 43 -4 0 -50 -53 -102 -117z"
    fill="#3AA18A"/>

  </g>
</svg>
