<?xml version="1.0" standalone="no"?>
<!DOCTYPE svg PUBLIC "-//W3C//DTD SVG 20010904//EN"
 "http://www.w3.org/TR/2001/REC-SVG-20010904/DTD/svg10.dtd">
<svg version="1.0" xmlns="http://www.w3.org/2000/svg"
 width="578.000000pt" height="432.000000pt" viewBox="0 0 578.000000 432.000000"
 preserveAspectRatio="xMidYMid meet">

<g transform="translate(0.000000,432.000000) scale(0.100000,-0.100000)"
fill="#0FA958" stroke="none">
<path d="M2696 3534 c-150 -25 -279 -85 -411 -191 -142 -115 -257 -299 -306
-491 -32 -123 -32 -293 0 -417 37 -144 116 -294 208 -396 96 -106 243 -206
376 -258 l92 -35 210 0 210 0 85 33 c93 37 98 40 217 118 200 132 331 333 379
581 38 199 -7 461 -108 627 -44 73 -164 212 -206 240 -21 14 -66 45 -101 70
-163 112 -411 159 -645 119z m416 -267 c-2 -27 5 -65 21 -107 60 -162 58 -286
-7 -349 -26 -25 -34 -28 -48 -17 -16 12 -15 16 14 56 49 66 50 129 4 248 -20
52 -36 103 -36 114 0 26 -28 18 -100 -30 -41 -28 -61 -51 -82 -92 l-28 -55 0
38 c0 55 25 100 82 152 34 30 70 51 112 64 33 11 63 20 66 20 3 1 4 -18 2 -42z
m-297 -113 c-20 -39 -19 -120 3 -166 19 -42 87 -115 190 -205 96 -85 127 -147
120 -242 -5 -71 -46 -161 -73 -161 -29 0 -35 26 -15 65 26 50 27 138 3 182
-26 47 -91 115 -103 108 -15 -10 -12 -41 6 -56 18 -15 55 -93 53 -112 0 -7 -7
2 -14 19 -19 43 -85 87 -119 78 -24 -6 -26 -3 -26 23 0 19 -13 43 -40 73 -22
25 -39 54 -39 65 0 17 3 16 26 -10 39 -46 74 -66 90 -53 21 17 16 29 -28 66
-48 41 -99 140 -99 192 0 51 15 97 46 137 30 40 41 39 19 -3z m177 -191 l4
-102 -23 21 c-28 26 -30 65 -5 156 19 73 20 71 24 -75z m-300 -21 c-4 -96 -2
-114 17 -151 28 -54 83 -115 129 -142 45 -27 100 -77 114 -104 16 -28 27 -85
18 -85 -5 0 -18 13 -29 29 -12 16 -58 55 -104 87 -93 64 -162 127 -182 164
-25 48 -36 127 -24 178 8 38 53 132 62 132 1 0 1 -49 -1 -108z m693 -169 c-8
-103 -15 -153 -23 -153 -3 0 -16 9 -28 21 -22 20 -23 20 -46 4 -13 -10 -43
-45 -68 -77 l-45 -60 -6 69 c-5 66 -4 69 27 109 l33 41 -37 30 -37 31 45 11
c25 7 72 21 105 31 91 28 87 31 80 -57z m-726 -159 c31 -25 81 -68 111 -94 30
-27 91 -77 135 -113 123 -98 121 -81 24 -200 -135 -166 -174 -201 -251 -222
-107 -28 -194 -1 -273 86 -50 56 -68 102 -68 179 -1 70 24 130 80 199 15 18
61 74 101 122 40 49 75 89 79 89 3 0 31 -21 62 -46z"/>
<path d="M2565 2513 c-22 -26 -54 -64 -73 -83 -18 -19 -40 -48 -49 -65 -20
-36 -28 -142 -15 -175 9 -22 11 -17 11 31 1 64 25 107 113 204 72 78 85 103
66 122 -13 12 -20 8 -53 -34z"/>
<path d="M2565 2513 c-22 -26 -54 -64 -73 -83 -18 -19 -40 -48 -49 -65 -20
-36 -28 -142 -15 -175 9 -22 11 -17 11 31 1 64 25 107 113 204 72 78 85 103
66 122 -13 12 -20 8 -53 -34z"/>




</g>
</svg>
